# Blender 3.6.5
# www.blender.org
mtllib a.mtl
o Сетка
v -7.744307 0.000000 7.744307
v 7.744307 0.000000 7.744307
v -7.744307 0.000000 4.646585
v 1.548862 2.237188 1.045866
v -1.548861 2.237188 1.045866
v -1.548861 0.000000 4.646585
v 1.548862 0.000000 4.646585
v 7.744307 0.000000 4.646585
v 1.548862 1.580076 -3.137598
v 1.548862 2.237188 -1.045866
v -1.548861 1.580076 -3.137598
v -1.548861 2.237188 -1.045866
v -7.744307 0.000000 -4.646585
v -1.548861 0.000000 -4.646585
v 1.548862 0.000000 -4.646585
v 1.548862 1.580076 3.137598
v -1.548861 1.580076 3.137598
v 7.744307 0.000000 -4.646585
v -7.744307 0.000000 -7.744307
v 7.744307 0.000000 -7.744307
vn -0.0000 1.0000 -0.0000
vn 1.0000 -0.0000 -0.0000
vn -1.0000 -0.0000 -0.0000
vn -0.0000 0.9540 0.2997
vn -0.0000 0.6907 0.7232
vn -0.0000 0.9540 -0.2997
vn -0.0000 0.6907 -0.7232
vt 1.173963 0.403699
vt 0.704411 0.843736
vt 0.704411 0.403699
vt -0.003423 0.127550
vt 0.159639 0.044559
vt 0.385672 0.010046
vt 1.000802 0.127550
vt 0.251518 0.811753
vt 0.000065 0.721831
vt 0.251518 0.721831
vt -0.003423 0.127629
vt 1.000802 0.127629
vt 0.385673 0.245133
vt 0.159639 0.210620
vt 0.837740 0.044559
vt 0.611706 0.010045
vt 0.000082 0.257020
vt 1.173963 0.257020
vt 0.469635 0.403699
vt 0.469635 0.843736
vt 0.000082 0.843736
vt 1.173963 0.990415
vt 0.000082 0.990415
vt 0.000065 0.627576
vt 0.251518 0.627576
vt 0.000082 0.403699
vt 0.000065 0.533650
vt 0.251518 0.533650
vt 0.000065 0.811753
vt 0.000065 0.906008
vt 0.251518 0.906008
vt 0.251518 0.999935
vt 0.000065 0.999935
vt 1.173963 0.843736
vt 0.611706 0.245133
vt 0.837740 0.210620
s 0
usemtl Материал
f 8/1/1 15/2/1 7/3/1
f 15/4/2 9/5/2 10/6/2
f 7/7/2 15/4/2 10/6/2
f 10/8/1 5/9/1 4/10/1
f 14/11/3 6/12/3 12/13/3
f 12/13/3 11/14/3 14/11/3
f 16/15/2 7/7/2 4/16/2
f 1/17/1 2/18/1 6/19/1
f 6/19/1 14/20/1 13/21/1
f 2/18/1 8/1/1 7/3/1
f 15/2/1 20/22/1 19/23/1
f 17/24/4 16/25/4 4/10/4
f 6/19/1 13/21/1 3/26/1
f 3/26/1 1/17/1 6/19/1
f 17/24/5 6/27/5 7/28/5
f 17/24/5 7/28/5 16/25/5
f 12/29/1 5/9/1 10/8/1
f 11/30/6 12/29/6 9/31/6
f 15/32/7 14/33/7 11/30/7
f 15/2/1 18/34/1 20/22/1
f 12/13/3 6/12/3 5/35/3
f 10/6/2 4/16/2 7/7/2
f 8/1/1 18/34/1 15/2/1
f 5/9/4 17/24/4 4/10/4
f 9/31/6 12/29/6 10/8/6
f 15/32/7 11/30/7 9/31/7
f 19/23/1 14/20/1 15/2/1
f 19/23/1 13/21/1 14/20/1
f 6/12/3 17/36/3 5/35/3
f 2/18/1 7/3/1 6/19/1
