# Blender 3.6.5
# www.blender.org
mtllib torus.mtl
o Ğ¢Ğ¾Ñ€
v 1.250000 0.000000 0.000000
v 1.176777 0.176777 0.000000
v 1.000000 0.250000 0.000000
v 0.823223 0.176777 0.000000
v 0.750000 0.000000 0.000000
v 0.823223 -0.176777 0.000000
v 1.000000 -0.250000 0.000000
v 1.176777 -0.176777 0.000000
v 1.141932 0.000000 -0.508421
v 1.075039 0.176777 -0.478638
v 0.913545 0.250000 -0.406737
v 0.752052 0.176777 -0.334835
v 0.685159 0.000000 -0.305052
v 0.752052 -0.176777 -0.334835
v 0.913545 -0.250000 -0.406737
v 1.075039 -0.176777 -0.478638
v 0.836413 0.000000 -0.928931
v 0.787417 0.176777 -0.874516
v 0.669131 0.250000 -0.743145
v 0.550844 0.176777 -0.611774
v 0.501848 0.000000 -0.557359
v 0.550844 -0.176777 -0.611774
v 0.669131 -0.250000 -0.743145
v 0.787417 -0.176777 -0.874516
v 0.386271 0.000000 -1.188821
v 0.363644 0.176777 -1.119181
v 0.309017 0.250000 -0.951056
v 0.254390 0.176777 -0.782932
v 0.231763 0.000000 -0.713292
v 0.254390 -0.176777 -0.782932
v 0.309017 -0.250000 -0.951056
v 0.363644 -0.176777 -1.119181
v -0.130661 0.000000 -1.243152
v -0.123007 0.176777 -1.170330
v -0.104529 0.250000 -0.994522
v -0.086051 0.176777 -0.818714
v -0.078397 0.000000 -0.745891
v -0.086051 -0.176777 -0.818714
v -0.104529 -0.250000 -0.994522
v -0.123007 -0.176777 -1.170330
v -0.625000 0.000000 -1.082532
v -0.588388 0.176777 -1.019119
v -0.500000 0.250000 -0.866026
v -0.411612 0.176777 -0.712932
v -0.375000 0.000000 -0.649519
v -0.411612 -0.176777 -0.712932
v -0.500000 -0.250000 -0.866026
v -0.588388 -0.176777 -1.019119
v -1.011271 0.000000 -0.734731
v -0.952033 0.176777 -0.691692
v -0.809017 0.250000 -0.587785
v -0.666002 0.176777 -0.483878
v -0.606763 0.000000 -0.440839
v -0.666002 -0.176777 -0.483878
v -0.809017 -0.250000 -0.587785
v -0.952033 -0.176777 -0.691692
v -1.222685 0.000000 -0.259890
v -1.151061 0.176777 -0.244666
v -0.978148 0.250000 -0.207912
v -0.805234 0.176777 -0.171158
v -0.733611 0.000000 -0.155934
v -0.805234 -0.176777 -0.171158
v -0.978148 -0.250000 -0.207912
v -1.151061 -0.176777 -0.244666
v -1.222685 0.000000 0.259890
v -1.151061 0.176777 0.244666
v -0.978148 0.250000 0.207912
v -0.805234 0.176777 0.171158
v -0.733611 0.000000 0.155934
v -0.805234 -0.176777 0.171158
v -0.978148 -0.250000 0.207912
v -1.151061 -0.176777 0.244666
v -1.011271 0.000000 0.734731
v -0.952033 0.176777 0.691692
v -0.809017 0.250000 0.587785
v -0.666002 0.176777 0.483878
v -0.606763 0.000000 0.440839
v -0.666002 -0.176777 0.483878
v -0.809017 -0.250000 0.587785
v -0.952033 -0.176777 0.691692
v -0.625000 0.000000 1.082532
v -0.588388 0.176777 1.019119
v -0.500000 0.250000 0.866026
v -0.411612 0.176777 0.712932
v -0.375000 0.000000 0.649519
v -0.411612 -0.176777 0.712932
v -0.500000 -0.250000 0.866026
v -0.588388 -0.176777 1.019119
v -0.130661 0.000000 1.243152
v -0.123007 0.176777 1.170330
v -0.104529 0.250000 0.994522
v -0.086051 0.176777 0.818714
v -0.078397 0.000000 0.745891
v -0.086051 -0.176777 0.818714
v -0.104529 -0.250000 0.994522
v -0.123007 -0.176777 1.170330
v 0.386271 0.000000 1.188821
v 0.363644 0.176777 1.119181
v 0.309017 0.250000 0.951056
v 0.254390 0.176777 0.782932
v 0.231763 0.000000 0.713292
v 0.254390 -0.176777 0.782932
v 0.309017 -0.250000 0.951056
v 0.363644 -0.176777 1.119181
v 0.836413 0.000000 0.928931
v 0.787417 0.176777 0.874516
v 0.669130 0.250000 0.743145
v 0.550844 0.176777 0.611774
v 0.501848 0.000000 0.557359
v 0.550844 -0.176777 0.611774
v 0.669130 -0.250000 0.743145
v 0.787417 -0.176777 0.874516
v 1.141932 0.000000 0.508421
v 1.075039 0.176777 0.478638
v 0.913546 0.250000 0.406736
v 0.752052 0.176777 0.334835
v 0.685159 0.000000 0.305052
v 0.752052 -0.176777 0.334835
v 0.913546 -0.250000 0.406736
v 1.075039 -0.176777 0.478638
vn 0.9066 0.3755 -0.1927
vn 0.3814 0.9208 -0.0811
vn -0.3814 0.9208 0.0811
vn -0.9066 0.3755 0.1927
vn -0.9066 -0.3755 0.1927
vn -0.3814 -0.9208 0.0811
vn 0.3814 -0.9208 -0.0811
vn 0.9066 -0.3755 -0.1927
vn 0.7498 0.3755 -0.5448
vn 0.3155 0.9208 -0.2292
vn -0.3155 0.9208 0.2292
vn -0.7498 0.3755 0.5448
vn -0.7498 -0.3755 0.5448
vn -0.3155 -0.9208 0.2292
vn 0.3155 -0.9208 -0.2292
vn 0.7498 -0.3755 -0.5448
vn 0.4634 0.3755 -0.8026
vn 0.1950 0.9208 -0.3377
vn -0.1950 0.9208 0.3377
vn -0.4634 0.3755 0.8026
vn -0.4634 -0.3755 0.8026
vn -0.1950 -0.9208 0.3377
vn 0.1950 -0.9208 -0.3377
vn 0.4634 -0.3755 -0.8026
vn 0.0969 0.3755 -0.9217
vn 0.0408 0.9208 -0.3878
vn -0.0408 0.9208 0.3878
vn -0.0969 0.3755 0.9217
vn -0.0969 -0.3755 0.9217
vn -0.0408 -0.9208 0.3878
vn 0.0408 -0.9208 -0.3878
vn 0.0969 -0.3755 -0.9217
vn -0.2864 0.3755 -0.8815
vn -0.1205 0.9208 -0.3709
vn 0.1205 0.9208 0.3709
vn 0.2864 0.3755 0.8815
vn 0.2864 -0.3755 0.8815
vn 0.1205 -0.9208 0.3709
vn -0.1205 -0.9208 -0.3709
vn -0.2864 -0.3755 -0.8815
vn -0.6202 0.3755 -0.6888
vn -0.2609 0.9208 -0.2898
vn 0.2609 0.9208 0.2898
vn 0.6202 0.3755 0.6888
vn 0.6202 -0.3755 0.6888
vn 0.2609 -0.9208 0.2898
vn -0.2609 -0.9208 -0.2898
vn -0.6202 -0.3755 -0.6888
vn -0.8467 0.3755 -0.3770
vn -0.3562 0.9208 -0.1586
vn 0.3562 0.9208 0.1586
vn 0.8467 0.3755 0.3770
vn 0.8467 -0.3755 0.3770
vn 0.3562 -0.9208 0.1586
vn -0.3562 -0.9208 -0.1586
vn -0.8467 -0.3755 -0.3770
vn -0.9268 0.3755 -0.0000
vn -0.3899 0.9208 -0.0000
vn 0.3899 0.9208 -0.0000
vn 0.9268 0.3755 -0.0000
vn 0.9268 -0.3755 -0.0000
vn 0.3899 -0.9208 -0.0000
vn -0.3899 -0.9208 -0.0000
vn -0.9268 -0.3755 -0.0000
vn -0.8467 0.3755 0.3770
vn -0.3562 0.9208 0.1586
vn 0.3562 0.9208 -0.1586
vn 0.8467 0.3755 -0.3770
vn 0.8467 -0.3755 -0.3770
vn 0.3562 -0.9208 -0.1586
vn -0.3562 -0.9208 0.1586
vn -0.8467 -0.3755 0.3770
vn -0.6202 0.3755 0.6888
vn -0.2609 0.9208 0.2898
vn 0.2609 0.9208 -0.2898
vn 0.6202 0.3755 -0.6888
vn 0.6202 -0.3755 -0.6888
vn 0.2609 -0.9208 -0.2898
vn -0.2609 -0.9208 0.2898
vn -0.6202 -0.3755 0.6888
vn -0.2864 0.3755 0.8815
vn -0.1205 0.9208 0.3709
vn 0.1205 0.9208 -0.3709
vn 0.2864 0.3755 -0.8815
vn 0.2864 -0.3755 -0.8815
vn 0.1205 -0.9208 -0.3709
vn -0.1205 -0.9208 0.3709
vn -0.2864 -0.3755 0.8815
vn 0.0969 0.3755 0.9217
vn 0.0408 0.9208 0.3878
vn -0.0408 0.9208 -0.3878
vn -0.0969 0.3755 -0.9217
vn -0.0969 -0.3755 -0.9217
vn -0.0408 -0.9208 -0.3878
vn 0.0408 -0.9208 0.3878
vn 0.0969 -0.3755 0.9217
vn 0.4634 0.3755 0.8026
vn 0.1950 0.9208 0.3377
vn -0.1950 0.9208 -0.3377
vn -0.4634 0.3755 -0.8026
vn -0.4634 -0.3755 -0.8026
vn -0.1950 -0.9208 -0.3377
vn 0.1950 -0.9208 0.3377
vn 0.4634 -0.3755 0.8026
vn 0.7498 0.3755 0.5448
vn 0.3155 0.9208 0.2292
vn -0.3155 0.9208 -0.2292
vn -0.7498 0.3755 -0.5448
vn -0.7498 -0.3755 -0.5448
vn -0.3155 -0.9208 -0.2292
vn 0.3155 -0.9208 0.2292
vn 0.7498 -0.3755 0.5448
vn 0.9066 0.3755 0.1927
vn 0.3814 0.9208 0.0811
vn -0.3814 0.9208 -0.0811
vn -0.9066 0.3755 -0.1927
vn -0.9066 -0.3755 -0.1927
vn -0.3814 -0.9208 -0.0811
vn 0.3814 -0.9208 0.0811
vn 0.9066 -0.3755 0.1927
vt 0.600000 0.500000
vt 0.533333 0.625000
vt 0.533333 0.500000
vt 0.600000 0.625000
vt 0.533333 0.750000
vt 0.600000 0.750000
vt 0.533333 0.875000
vt 0.600000 0.875000
vt 0.533333 1.000000
vt 0.600000 0.000000
vt 0.533333 0.125000
vt 0.533333 0.000000
vt 0.600000 0.250000
vt 0.533333 0.250000
vt 0.600000 0.375000
vt 0.533333 0.375000
vt 0.666667 0.500000
vt 0.666667 0.625000
vt 0.666667 0.875000
vt 0.600000 1.000000
vt 0.666667 0.000000
vt 0.600000 0.125000
vt 0.666667 0.125000
vt 0.666667 0.250000
vt 0.666667 0.375000
vt 0.733333 0.500000
vt 0.733333 0.625000
vt 0.666667 0.750000
vt 0.733333 0.875000
vt 0.666667 1.000000
vt 0.733333 0.000000
vt 0.733333 0.125000
vt 0.733333 0.250000
vt 0.733333 0.375000
vt 0.800000 0.500000
vt 0.800000 0.625000
vt 0.733333 0.750000
vt 0.800000 0.750000
vt 0.800000 0.875000
vt 0.733333 1.000000
vt 0.800000 0.000000
vt 0.800000 0.250000
vt 0.800000 0.375000
vt 0.866667 0.500000
vt 0.866667 0.625000
vt 0.866667 0.750000
vt 0.866667 0.875000
vt 0.800000 1.000000
vt 0.866667 0.000000
vt 0.800000 0.125000
vt 0.866667 0.125000
vt 0.866667 0.250000
vt 0.866667 0.375000
vt 0.933333 0.625000
vt 0.933333 0.750000
vt 0.933333 0.875000
vt 0.866667 1.000000
vt 0.933333 0.000000
vt 0.933333 0.125000
vt 0.933333 0.250000
vt 0.933333 0.375000
vt 0.933333 0.500000
vt 1.000000 0.625000
vt 1.000000 0.750000
vt 1.000000 0.875000
vt 0.933333 1.000000
vt 1.000000 0.000000
vt 1.000000 0.125000
vt 1.000000 0.250000
vt 1.000000 0.375000
vt -0.000000 0.500000
vt 0.066667 0.625000
vt -0.000000 0.625000
vt -0.000000 0.750000
vt 0.066667 0.750000
vt -0.000000 0.875000
vt 0.066667 0.875000
vt -0.000000 1.000000
vt 0.066667 0.000000
vt -0.000000 0.125000
vt -0.000000 0.000000
vt 0.066667 0.125000
vt -0.000000 0.250000
vt 0.066667 0.250000
vt -0.000000 0.375000
vt 0.066667 0.375000
vt 0.133333 0.500000
vt 0.066667 0.500000
vt 0.133333 0.625000
vt 0.133333 0.750000
vt 0.133333 0.875000
vt 0.066667 1.000000
vt 0.133333 0.000000
vt 0.133333 0.125000
vt 0.133333 0.375000
vt 0.200000 0.625000
vt 0.200000 0.750000
vt 0.200000 0.875000
vt 0.133333 1.000000
vt 0.200000 0.125000
vt 0.133333 0.250000
vt 0.200000 0.250000
vt 0.200000 0.500000
vt 0.266667 0.500000
vt 0.266667 0.625000
vt 0.266667 0.750000
vt 0.266667 1.000000
vt 0.200000 1.000000
vt 0.266667 0.000000
vt 0.200000 0.000000
vt 0.266667 0.125000
vt 0.266667 0.250000
vt 0.200000 0.375000
vt 0.266667 0.375000
vt 0.333333 0.500000
vt 0.333333 0.625000
vt 0.333333 0.750000
vt 0.266667 0.875000
vt 0.333333 0.875000
vt 0.333333 0.000000
vt 0.333333 0.125000
vt 0.333333 0.250000
vt 0.333333 0.375000
vt 0.400000 0.625000
vt 0.400000 0.750000
vt 0.400000 1.000000
vt 0.333333 1.000000
vt 0.400000 0.000000
vt 0.400000 0.125000
vt 0.400000 0.250000
vt 0.400000 0.500000
vt 0.466667 0.500000
vt 0.466667 0.625000
vt 0.466667 0.750000
vt 0.400000 0.875000
vt 0.466667 1.000000
vt 0.466667 0.000000
vt 0.466667 0.250000
vt 0.400000 0.375000
vt 0.466667 0.375000
vt 0.466667 0.875000
vt 0.466667 0.125000
vt 1.000000 0.500000
vt 1.000000 1.000000
s 0
f 9/1/1 2/2/1 1/3/1
f 10/4/2 3/5/2 2/2/2
f 11/6/3 4/7/3 3/5/3
f 12/8/4 5/9/4 4/7/4
f 13/10/5 6/11/5 5/12/5
f 6/11/6 15/13/6 7/14/6
f 7/14/7 16/15/7 8/16/7
f 16/15/8 1/3/8 8/16/8
f 17/17/9 10/4/9 9/1/9
f 18/18/10 11/6/10 10/4/10
f 11/6/11 20/19/11 12/8/11
f 20/19/12 13/20/12 12/8/12
f 21/21/13 14/22/13 13/10/13
f 22/23/14 15/13/14 14/22/14
f 23/24/15 16/15/15 15/13/15
f 24/25/16 9/1/16 16/15/16
f 25/26/17 18/18/17 17/17/17
f 26/27/18 19/28/18 18/18/18
f 19/28/19 28/29/19 20/19/19
f 28/29/20 21/30/20 20/19/20
f 29/31/21 22/23/21 21/21/21
f 30/32/22 23/24/22 22/23/22
f 31/33/23 24/25/23 23/24/23
f 32/34/24 17/17/24 24/25/24
f 33/35/25 26/27/25 25/26/25
f 34/36/26 27/37/26 26/27/26
f 35/38/27 28/29/27 27/37/27
f 36/39/28 29/40/28 28/29/28
f 37/41/29 30/32/29 29/31/29
f 30/32/30 39/42/30 31/33/30
f 39/42/31 32/34/31 31/33/31
f 40/43/32 25/26/32 32/34/32
f 41/44/33 34/36/33 33/35/33
f 42/45/34 35/38/34 34/36/34
f 43/46/35 36/39/35 35/38/35
f 44/47/36 37/48/36 36/39/36
f 45/49/37 38/50/37 37/41/37
f 46/51/38 39/42/38 38/50/38
f 47/52/39 40/43/39 39/42/39
f 48/53/40 33/35/40 40/43/40
f 41/44/41 50/54/41 42/45/41
f 50/54/42 43/46/42 42/45/42
f 51/55/43 44/47/43 43/46/43
f 52/56/44 45/57/44 44/47/44
f 53/58/45 46/51/45 45/49/45
f 54/59/46 47/52/46 46/51/46
f 55/60/47 48/53/47 47/52/47
f 56/61/48 41/44/48 48/53/48
f 49/62/49 58/63/49 50/54/49
f 58/63/50 51/55/50 50/54/50
f 59/64/51 52/56/51 51/55/51
f 60/65/52 53/66/52 52/56/52
f 61/67/53 54/59/53 53/58/53
f 62/68/54 55/60/54 54/59/54
f 63/69/55 56/61/55 55/60/55
f 64/70/56 49/62/56 56/61/56
f 57/71/57 66/72/57 58/73/57
f 66/72/58 59/74/58 58/73/58
f 67/75/59 60/76/59 59/74/59
f 68/77/60 61/78/60 60/76/60
f 69/79/61 62/80/61 61/81/61
f 70/82/62 63/83/62 62/80/62
f 71/84/63 64/85/63 63/83/63
f 72/86/64 57/71/64 64/85/64
f 73/87/65 66/72/65 65/88/65
f 74/89/66 67/75/66 66/72/66
f 75/90/67 68/77/67 67/75/67
f 76/91/68 69/92/68 68/77/68
f 77/93/69 70/82/69 69/79/69
f 78/94/70 71/84/70 70/82/70
f 71/84/71 80/95/71 72/86/71
f 80/95/72 65/88/72 72/86/72
f 73/87/73 82/96/73 74/89/73
f 74/89/74 83/97/74 75/90/74
f 75/90/75 84/98/75 76/91/75
f 84/98/76 77/99/76 76/91/76
f 77/93/77 86/100/77 78/94/77
f 86/100/78 79/101/78 78/94/78
f 87/102/79 80/95/79 79/101/79
f 80/95/80 81/103/80 73/87/80
f 89/104/81 82/96/81 81/103/81
f 90/105/82 83/97/82 82/96/82
f 91/106/83 84/98/83 83/97/83
f 84/98/84 93/107/84 85/108/84
f 93/109/85 86/100/85 85/110/85
f 94/111/86 87/102/86 86/100/86
f 95/112/87 88/113/87 87/102/87
f 96/114/88 81/103/88 88/113/88
f 97/115/89 90/105/89 89/104/89
f 98/116/90 91/106/90 90/105/90
f 99/117/91 92/118/91 91/106/91
f 100/119/92 93/107/92 92/118/92
f 101/120/93 94/111/93 93/109/93
f 102/121/94 95/112/94 94/111/94
f 103/122/95 96/114/95 95/112/95
f 104/123/96 89/104/96 96/114/96
f 97/115/97 106/124/97 98/116/97
f 106/124/98 99/117/98 98/116/98
f 107/125/99 100/119/99 99/117/99
f 100/119/100 109/126/100 101/127/100
f 109/128/101 102/121/101 101/120/101
f 110/129/102 103/122/102 102/121/102
f 111/130/103 104/123/103 103/122/103
f 104/123/104 105/131/104 97/115/104
f 113/132/105 106/124/105 105/131/105
f 114/133/106 107/125/106 106/124/106
f 115/134/107 108/135/107 107/125/107
f 108/135/108 117/136/108 109/126/108
f 117/137/109 110/129/109 109/128/109
f 110/129/110 119/138/110 111/130/110
f 119/138/111 112/139/111 111/130/111
f 120/140/112 105/131/112 112/139/112
f 1/3/113 114/133/113 113/132/113
f 2/2/114 115/134/114 114/133/114
f 3/5/115 116/141/115 115/134/115
f 4/7/116 117/136/116 116/141/116
f 117/137/117 6/11/117 118/142/117
f 118/142/118 7/14/118 119/138/118
f 119/138/119 8/16/119 120/140/119
f 8/16/120 113/132/120 120/140/120
f 9/1/1 10/4/1 2/2/1
f 10/4/2 11/6/2 3/5/2
f 11/6/3 12/8/3 4/7/3
f 12/8/4 13/20/4 5/9/4
f 13/10/5 14/22/5 6/11/5
f 6/11/6 14/22/6 15/13/6
f 7/14/7 15/13/7 16/15/7
f 16/15/8 9/1/8 1/3/8
f 17/17/9 18/18/9 10/4/9
f 18/18/10 19/28/10 11/6/10
f 11/6/11 19/28/11 20/19/11
f 20/19/12 21/30/12 13/20/12
f 21/21/13 22/23/13 14/22/13
f 22/23/14 23/24/14 15/13/14
f 23/24/15 24/25/15 16/15/15
f 24/25/16 17/17/16 9/1/16
f 25/26/17 26/27/17 18/18/17
f 26/27/18 27/37/18 19/28/18
f 19/28/19 27/37/19 28/29/19
f 28/29/20 29/40/20 21/30/20
f 29/31/21 30/32/21 22/23/21
f 30/32/22 31/33/22 23/24/22
f 31/33/23 32/34/23 24/25/23
f 32/34/24 25/26/24 17/17/24
f 33/35/25 34/36/25 26/27/25
f 34/36/26 35/38/26 27/37/26
f 35/38/27 36/39/27 28/29/27
f 36/39/28 37/48/28 29/40/28
f 37/41/29 38/50/29 30/32/29
f 30/32/30 38/50/30 39/42/30
f 39/42/31 40/43/31 32/34/31
f 40/43/32 33/35/32 25/26/32
f 41/44/33 42/45/33 34/36/33
f 42/45/34 43/46/34 35/38/34
f 43/46/35 44/47/35 36/39/35
f 44/47/36 45/57/36 37/48/36
f 45/49/37 46/51/37 38/50/37
f 46/51/38 47/52/38 39/42/38
f 47/52/39 48/53/39 40/43/39
f 48/53/40 41/44/40 33/35/40
f 41/44/41 49/62/41 50/54/41
f 50/54/42 51/55/42 43/46/42
f 51/55/43 52/56/43 44/47/43
f 52/56/44 53/66/44 45/57/44
f 53/58/45 54/59/45 46/51/45
f 54/59/46 55/60/46 47/52/46
f 55/60/47 56/61/47 48/53/47
f 56/61/48 49/62/48 41/44/48
f 49/62/49 57/143/49 58/63/49
f 58/63/50 59/64/50 51/55/50
f 59/64/51 60/65/51 52/56/51
f 60/65/52 61/144/52 53/66/52
f 61/67/53 62/68/53 54/59/53
f 62/68/54 63/69/54 55/60/54
f 63/69/55 64/70/55 56/61/55
f 64/70/56 57/143/56 49/62/56
f 57/71/57 65/88/57 66/72/57
f 66/72/58 67/75/58 59/74/58
f 67/75/59 68/77/59 60/76/59
f 68/77/60 69/92/60 61/78/60
f 69/79/61 70/82/61 62/80/61
f 70/82/62 71/84/62 63/83/62
f 71/84/63 72/86/63 64/85/63
f 72/86/64 65/88/64 57/71/64
f 73/87/65 74/89/65 66/72/65
f 74/89/66 75/90/66 67/75/66
f 75/90/67 76/91/67 68/77/67
f 76/91/68 77/99/68 69/92/68
f 77/93/69 78/94/69 70/82/69
f 78/94/70 79/101/70 71/84/70
f 71/84/71 79/101/71 80/95/71
f 80/95/72 73/87/72 65/88/72
f 73/87/73 81/103/73 82/96/73
f 74/89/74 82/96/74 83/97/74
f 75/90/75 83/97/75 84/98/75
f 84/98/76 85/108/76 77/99/76
f 77/93/77 85/110/77 86/100/77
f 86/100/78 87/102/78 79/101/78
f 87/102/79 88/113/79 80/95/79
f 80/95/80 88/113/80 81/103/80
f 89/104/81 90/105/81 82/96/81
f 90/105/82 91/106/82 83/97/82
f 91/106/83 92/118/83 84/98/83
f 84/98/84 92/118/84 93/107/84
f 93/109/85 94/111/85 86/100/85
f 94/111/86 95/112/86 87/102/86
f 95/112/87 96/114/87 88/113/87
f 96/114/88 89/104/88 81/103/88
f 97/115/89 98/116/89 90/105/89
f 98/116/90 99/117/90 91/106/90
f 99/117/91 100/119/91 92/118/91
f 100/119/92 101/127/92 93/107/92
f 101/120/93 102/121/93 94/111/93
f 102/121/94 103/122/94 95/112/94
f 103/122/95 104/123/95 96/114/95
f 104/123/96 97/115/96 89/104/96
f 97/115/97 105/131/97 106/124/97
f 106/124/98 107/125/98 99/117/98
f 107/125/99 108/135/99 100/119/99
f 100/119/100 108/135/100 109/126/100
f 109/128/101 110/129/101 102/121/101
f 110/129/102 111/130/102 103/122/102
f 111/130/103 112/139/103 104/123/103
f 104/123/104 112/139/104 105/131/104
f 113/132/105 114/133/105 106/124/105
f 114/133/106 115/134/106 107/125/106
f 115/134/107 116/141/107 108/135/107
f 108/135/108 116/141/108 117/136/108
f 117/137/109 118/142/109 110/129/109
f 110/129/110 118/142/110 119/138/110
f 119/138/111 120/140/111 112/139/111
f 120/140/112 113/132/112 105/131/112
f 1/3/113 2/2/113 114/133/113
f 2/2/114 3/5/114 115/134/114
f 3/5/115 4/7/115 116/141/115
f 4/7/116 5/9/116 117/136/116
f 117/137/117 5/12/117 6/11/117
f 118/142/118 6/11/118 7/14/118
f 119/138/119 7/14/119 8/16/119
f 8/16/120 1/3/120 113/132/120
